<mxfile host="app.diagrams.net" modified="2023-05-25T13:37:01.308Z" agent="Mozilla/5.0 (Macintosh; Intel Mac OS X 10_15_7) AppleWebKit/605.1.15 (KHTML, like Gecko) Version/16.3 Safari/605.1.15" version="21.3.3" etag="nYkArmtOhcmD5RdlzkOM" type="github">
  <diagram name="第 1 页" id="lgaNN2i8ZBHKdOH2Epyy">
    <mxGraphModel>
      <root>
        <mxCell id="0" />
        <mxCell id="1" parent="0" />
      </root>
    </mxGraphModel>
  </diagram>
</mxfile>
